<?xml version="1.0" encoding="UTF-8" standalone="no"?>
<!-- Creator: CorelDRAW -->

<svg
   xml:space="preserve"
   width="500"
   height="500"
   version="1.1"
   style="clip-rule:evenodd;fill-rule:evenodd;image-rendering:optimizeQuality;shape-rendering:geometricPrecision;text-rendering:geometricPrecision"
   viewBox="0 0 500 500"
   id="svg25"
   xmlns:xlink="http://www.w3.org/1999/xlink"
   xmlns="http://www.w3.org/2000/svg"
   xmlns:svg="http://www.w3.org/2000/svg">
 <defs
   id="defs4"><linearGradient
   id="linearGradient846"><stop
     style="stop-color:#2f4050;stop-opacity:1;"
     offset="0"
     id="stop844" /></linearGradient>
  <style
   type="text/css"
   id="style2">
   <![CDATA[
    .fil0 {fill:#4B4B4D;fill-rule:nonzero}
   ]]>
  </style>
 <linearGradient
   xlink:href="#linearGradient846"
   id="linearGradient848"
   x1="0"
   y1="1482.035"
   x2="4075.41"
   y2="1482.035"
   gradientUnits="userSpaceOnUse" /></defs>
 <g
   id="Layer_x0020_1">
  <metadata
   id="CorelCorpID_0Corel-Layer" />
  <g
   id="_2381877526320"
   transform="matrix(0.12268704,0,0,0.10635539,5.1568e-6,92.37759)"
   style="fill-opacity:1;fill:url(#linearGradient848)">
   <polygon
   class="fil0"
   points="3532.61,784.04 3008.83,784.04 2922.04,1031.67 2868.23,1013.1 2968.65,727.27 3532.61,727.27 "
   id="polygon7"
   style="fill-opacity:1;fill:url(#linearGradient848)" />
   <path
   class="fil0"
   d="m 1499.13,945.99 c 42.46,-9.16 86.16,-13.99 129.56,-13.99 79.73,0 159.65,15.6 233.63,46.37 64.33,26.69 124.07,64.57 175.5,110.94 51.69,-46.37 110.94,-84.25 175.52,-110.94 73.54,-30.77 153.9,-46.37 233.63,-46.37 30.94,0 61.96,2.48 92.8,7.13 -8.49,-123.82 -62.97,-243.48 -151.18,-330.84 -96.44,-97.38 -231.97,-153.65 -368.9,-152.97 -136.7,-0.68 -272.01,55.59 -368.53,152.97 -90,88.9 -144.66,211.35 -152.03,337.7 z m 363.19,1160.99 c -73.98,30.59 -153.9,46.43 -233.63,46.43 -80.17,0 -159.91,-15.84 -233.89,-46.43 -73.72,-30.77 -141.7,-76.02 -197.96,-132.54 -56.77,-56.53 -101.78,-124.07 -132.54,-197.98 -30.59,-73.97 -46.43,-153.71 -46.43,-233.89 0,-79.72 15.84,-159.89 46.43,-233.63 30.76,-73.97 75.77,-141.51 132.54,-197.97 56.26,-56.51 124.24,-102.02 197.96,-132.6 l 14.25,-5.51 c 0.49,-78.57 16.09,-157.31 46.43,-229.68 30.57,-74.23 75.78,-141.77 132.55,-198.27 56.26,-56.53 124.04,-101.97 198.02,-132.55 73.99,-30.78 153.71,-46.18 233.64,-46.18 79.67,0 159.9,15.4 233.82,46.18 73.98,30.58 141.76,76.02 198.04,132.55 56.77,56.5 102.01,124.04 132.54,198.27 28.71,68.41 44.14,142.63 45.93,216.87 17.21,5.43 34.24,11.45 50.52,18.32 73.98,30.58 141.75,76.09 198.03,132.6 56.77,56.46 102.03,124 132.54,197.97 30.83,73.74 46.43,153.91 46.43,233.63 0,80.18 -15.6,159.92 -46.43,233.89 -9.16,21.79 -19.5,42.9 -31,63.4 l 88.26,79.67 h 464.24 v 56.77 h -486.08 l -96.94,-87.53 c -20.69,30.76 -44.57,59.49 -71.02,85.67 -56.28,56.52 -124.05,101.77 -198.03,132.54 -73.92,30.59 -153.65,46.43 -233.57,46.43 -79.73,0 -160.09,-15.84 -233.63,-46.43 -64.58,-26.62 -123.83,-64.56 -175.52,-111.12 -51.43,46.56 -111.17,84.5 -175.5,111.12 z m -406.84,-896.59 c -19.08,-45.92 -32.13,-94.41 -39.5,-143.56 -57.89,25.93 -111.43,62.03 -156,107.29 -97.13,96.26 -153.41,231.77 -152.8,368.45 -0.61,136.95 55.67,272.46 152.8,368.73 96.27,97.18 231.77,153.41 368.71,152.77 127.03,0.64 252.71,-47.78 347.36,-132.79 -38.57,-46.67 -70.09,-99.04 -93.55,-154.82 -28.22,-68.72 -43.64,-142.93 -45.93,-217.35 -17.21,-5.27 -33.98,-11.27 -50.52,-18.13 -73.98,-30.54 -141.76,-76.04 -198.02,-132.54 -56.77,-56.53 -101.98,-124.07 -132.55,-198.05 z m 1201.65,337.94 254.57,229.94 c 37.2,-72.57 56.95,-153.92 56.7,-235.7 0.74,-136.68 -55.59,-272.19 -152.97,-368.45 -53.31,-53.99 -118.8,-95.35 -189.99,-121.28 -6.93,53.98 -20.67,107.29 -41.35,157.55 -30.53,73.98 -75.77,141.52 -132.54,198.05 -56.28,56.5 -124.06,102 -198.04,132.54 l -14.24,5.51 c -0.44,78.54 -16.09,157.11 -46.43,229.97 -23.15,55.78 -54.61,108.15 -93.48,154.82 94.66,85.01 220.32,133.43 347.61,132.79 136.62,0.64 272.44,-55.59 368.46,-152.77 25.75,-25.01 48.23,-52.88 67.55,-82.71 L 2619,1590.37 Z m -118.54,-518.95 c -30.09,-5.27 -61.1,-8.3 -91.62,-8.06 -127.29,-0.66 -252.95,47.8 -347.61,132.54 38.87,46.68 70.33,99.07 93.48,155.08 18.88,46.01 32.19,94.41 39.55,143.56 57.89,-25.93 111.38,-61.96 156.2,-107.27 84.32,-83.83 138.1,-197.54 150,-315.85 z m -500.77,836.66 c 65.44,-83.38 105.19,-186.76 111.38,-292.69 -42.47,9.22 -86.11,13.99 -129.51,13.99 -31.02,0 -62.03,-2.47 -92.55,-7.06 7.31,103.38 46.37,203.99 110.68,285.76 z m 108.65,-383.45 c -11.01,-95.51 -49.39,-187.39 -108.65,-263.04 -61.35,77.45 -99.73,172.36 -109.57,270.66 29.85,5.07 60.86,8.04 91.44,8.04 42.91,0 85.42,-5.32 126.78,-15.66 z m -305.31,-16.03 c 6.93,-53.98 20.67,-107.28 41.34,-157.62 23.46,-56.01 54.98,-108.4 93.55,-155.08 -94.65,-84.74 -220.33,-133.2 -347.36,-132.54 -42.96,-0.24 -85.43,5.09 -126.6,15.43 13.13,115.76 65.93,226.51 149.07,308.48 53.36,53.98 118.8,95.34 190,121.33 z"
   id="path9"
   style="fill-opacity:1;fill:url(#linearGradient848)" />
   <polygon
   class="fil0"
   points="503.74,2004.53 918.85,2004.53 918.85,1891.28 503.74,1891.28 "
   id="polygon11"
   style="fill-opacity:1;fill:url(#linearGradient848)" />
   <polygon
   class="fil0"
   points="503.74,1744.52 918.85,1744.52 918.85,1631.23 503.74,1631.23 "
   id="polygon13"
   style="fill-opacity:1;fill:url(#linearGradient848)" />
   <polygon
   class="fil0"
   points="503.74,1477.77 918.85,1477.77 918.85,1364.51 503.74,1364.51 "
   id="polygon15"
   style="fill-opacity:1;fill:url(#linearGradient848)" />
   <path
   class="fil0"
   d="M 3710.41,155.76 H 364.76 V 2363.58 H 3710.41 Z M 222.37,0 H 3852.79 V 2519.34 H 222.37 Z"
   id="path17"
   style="fill-opacity:1;fill:url(#linearGradient848)" />
   <polygon
   class="fil0"
   points="4075.41,2814.31 2875.12,2814.31 0,2814.31 222.37,2608.49 3852.79,2608.49 "
   id="polygon19"
   style="fill-opacity:1;fill:url(#linearGradient848)" />
   <path
   class="fil0"
   d="M 3919.7,2964.07 H 155.95 C 69.83,2964.07 0,2923.64 0,2873.82 v -20.25 h 4075.41 v 20.25 c 0,49.82 -69.59,90.25 -155.71,90.25 z"
   id="path21"
   style="fill-opacity:1;fill:url(#linearGradient848)" />
  </g>
 </g>
</svg>
