<?xml version="1.0" encoding="UTF-8" standalone="no"?>
<!-- Creator: CorelDRAW -->

<svg
   xml:space="preserve"
   width="500"
   height="500"
   version="1.1"
   style="clip-rule:evenodd;fill-rule:evenodd;image-rendering:optimizeQuality;shape-rendering:geometricPrecision;text-rendering:geometricPrecision"
   viewBox="0 0 500 500"
   id="svg51"
   sodipodi:docname="analytics-white.svg"
   inkscape:version="1.1.2 (0a00cf5339, 2022-02-04)"
   xmlns:inkscape="http://www.inkscape.org/namespaces/inkscape"
   xmlns:sodipodi="http://sodipodi.sourceforge.net/DTD/sodipodi-0.dtd"
   xmlns="http://www.w3.org/2000/svg"
   xmlns:svg="http://www.w3.org/2000/svg"><sodipodi:namedview
   id="namedview29"
   pagecolor="#ffffff"
   bordercolor="#666666"
   borderopacity="1.0"
   inkscape:pageshadow="2"
   inkscape:pageopacity="0.0"
   inkscape:pagecheckerboard="0"
   showgrid="false"
   inkscape:zoom="1.288"
   inkscape:cx="249.6118"
   inkscape:cy="250"
   inkscape:window-width="1920"
   inkscape:window-height="1007"
   inkscape:window-x="0"
   inkscape:window-y="0"
   inkscape:window-maximized="1"
   inkscape:current-layer="Layer_x0020_1" />
 <defs
   id="defs4">
  <style
   type="text/css"
   id="style2">
   <![CDATA[
    .fil0 {fill:#4B4B4D;fill-rule:nonzero}
   ]]>
  </style>
 </defs>
 <g
   id="Layer_x0020_1"
   inkscape:label="Layer 1"
   inkscape:groupmode="layer">
  <metadata
   id="CorelCorpID_0Corel-Layer" />
  <g
   id="_2381880431360"
   transform="matrix(0.68871472,0,0,0.66651612,2.1359999e-7,74.046409)"
   style="fill:#ffffff">
   <path
   class="fil0"
   d="m 612.85,215.57 c 9.7,0 17.59,7.89 17.59,17.59 0,9.73 -7.89,17.6 -17.59,17.6 -9.74,0 -17.6,-7.87 -17.6,-17.6 0,-9.7 7.86,-17.59 17.6,-17.59 z"
   id="path7"
   style="fill:#ffffff" />
   <path
   class="fil0"
   d="m 568.62,215.57 c 9.69,0 17.58,7.89 17.58,17.59 0,9.73 -7.89,17.6 -17.58,17.6 -9.74,0 -17.6,-7.87 -17.6,-17.6 0,-9.7 7.86,-17.59 17.6,-17.59 z"
   id="path9"
   style="fill:#ffffff" />
   <path
   class="fil0"
   d="m 523.89,215.89 c 9.74,0 17.64,7.86 17.64,17.6 0,9.7 -7.9,17.59 -17.64,17.59 -9.71,0 -17.6,-7.89 -17.6,-17.59 0,-9.74 7.89,-17.6 17.6,-17.6 z"
   id="path11"
   style="fill:#ffffff" />
   <path
   class="fil0"
   d="m 479.65,215.89 c 9.75,0 17.56,7.86 17.56,17.6 0,9.7 -7.81,17.59 -17.56,17.59 -9.69,0 -17.63,-7.89 -17.63,-17.59 0,-9.74 7.94,-17.6 17.63,-17.6 z"
   id="path13"
   style="fill:#ffffff" />
   <path
   class="fil0"
   d="m 472,269.54 c 0,9.7 -7.85,17.59 -17.64,17.59 -9.69,0 -17.55,-7.89 -17.55,-17.59 0,-9.74 7.86,-17.6 17.55,-17.6 9.79,0 17.64,7.86 17.64,17.6 z"
   id="path15"
   style="fill:#ffffff" />
   <path
   class="fil0"
   d="m 430.15,289.1 c 9.69,0 17.59,7.89 17.59,17.59 0,9.74 -7.9,17.6 -17.59,17.6 -9.74,0 -17.6,-7.86 -17.6,-17.6 0,-9.7 7.86,-17.59 17.6,-17.59 z"
   id="path17"
   style="fill:#ffffff" />
   <path
   class="fil0"
   d="m 400.89,317.62 c 9.65,0 17.59,7.89 17.59,17.6 0,9.73 -7.94,17.59 -17.59,17.59 -9.74,0 -17.6,-7.86 -17.6,-17.59 0,-9.71 7.86,-17.6 17.6,-17.6 z"
   id="path19"
   style="fill:#ffffff" />
   <path
   class="fil0"
   d="m 385.22,271.5 c 9.72,0 17.59,7.86 17.59,17.6 0,9.73 -7.87,17.59 -17.59,17.59 -9.71,0 -17.6,-7.86 -17.6,-17.59 0,-9.74 7.89,-17.6 17.6,-17.6 z"
   id="path21"
   style="fill:#ffffff" />
   <path
   class="fil0"
   d="m 369.62,228.45 c 9.7,0 17.6,7.91 17.6,17.6 0,9.73 -7.9,17.59 -17.6,17.59 -9.77,0 -17.59,-7.86 -17.59,-17.59 0,-9.69 7.82,-17.6 17.59,-17.6 z"
   id="path23"
   style="fill:#ffffff" />
   <path
   class="fil0"
   d="m 353.79,184.05 c 9.73,0 17.59,7.91 17.59,17.65 0,9.69 -7.86,17.6 -17.59,17.6 -9.74,0 -17.6,-7.91 -17.6,-17.6 0,-9.74 7.86,-17.65 17.6,-17.65 z"
   id="path25"
   style="fill:#ffffff" />
   <path
   class="fil0"
   d="m 338.16,140.23 c 9.68,0 17.63,7.86 17.63,17.56 0,9.73 -7.95,17.63 -17.63,17.63 -9.7,0 -17.57,-7.9 -17.57,-17.63 0,-9.7 7.87,-17.56 17.57,-17.56 z"
   id="path27"
   style="fill:#ffffff" />
   <path
   class="fil0"
   d="m 318.6,95.59 c 9.73,0 17.59,7.86 17.59,17.6 0,9.68 -7.86,17.59 -17.59,17.59 -9.71,0 -17.6,-7.91 -17.6,-17.59 0,-9.74 7.89,-17.6 17.6,-17.6 z"
   id="path29"
   style="fill:#ffffff" />
   <path
   class="fil0"
   d="m 293.06,132.01 c 9.74,0 17.56,7.9 17.56,17.63 0,9.7 -7.82,17.59 -17.56,17.59 -9.74,0 -17.63,-7.89 -17.63,-17.59 0,-9.73 7.89,-17.63 17.63,-17.63 z"
   id="path31"
   style="fill:#ffffff" />
   <path
   class="fil0"
   d="m 267.28,173.42 c 9.78,0 17.63,7.9 17.63,17.6 0,9.73 -7.85,17.63 -17.63,17.63 -9.65,0 -17.59,-7.9 -17.59,-17.63 0,-9.7 7.94,-17.6 17.59,-17.6 z"
   id="path33"
   style="fill:#ffffff" />
   <path
   class="fil0"
   d="m 240.97,217.53 c 9.74,0 17.63,7.89 17.63,17.6 0,9.74 -7.89,17.63 -17.63,17.63 -9.65,0 -17.56,-7.89 -17.56,-17.63 0,-9.71 7.91,-17.6 17.56,-17.6 z"
   id="path35"
   style="fill:#ffffff" />
   <path
   class="fil0"
   d="m 198.58,217.53 c 9.74,0 17.59,7.89 17.59,17.6 0,9.74 -7.85,17.63 -17.59,17.63 -9.7,0 -17.65,-7.89 -17.65,-17.63 0,-9.71 7.95,-17.6 17.65,-17.6 z"
   id="path37"
   style="fill:#ffffff" />
   <path
   class="fil0"
   d="m 155.24,217.53 c 9.71,0 17.6,7.89 17.6,17.6 0,9.74 -7.89,17.63 -17.6,17.63 -9.74,0 -17.63,-7.89 -17.63,-17.63 0,-9.71 7.89,-17.6 17.63,-17.6 z"
   id="path39"
   style="fill:#ffffff" />
   <path
   class="fil0"
   d="m 113.18,217.53 c 9.74,0 17.67,7.89 17.67,17.6 0,9.74 -7.93,17.63 -17.67,17.63 -9.7,0 -17.56,-7.89 -17.56,-17.63 0,-9.71 7.86,-17.6 17.56,-17.6 z"
   id="path41"
   style="fill:#ffffff" />
   <path
   class="fil0"
   d="M 660.97,421.02 V 27.74 H 65.06 V 421.02 Z M 39.64,0 H 686.45 V 448.76 H 39.64 Z"
   id="path43"
   style="fill:#ffffff" />
   <polygon
   class="fil0"
   points="39.64,464.6 686.45,464.6 725.99,501.31 512.19,501.31 0,501.31 "
   id="polygon45"
   style="fill:#ffffff" />
   <path
   class="fil0"
   d="m 0,508.29 h 725.99 v 3.61 c 0,8.88 -12.4,16.08 -27.79,16.08 H 27.79 C 12.48,527.98 0,520.78 0,511.9 Z"
   id="path47"
   style="fill:#ffffff" />
  </g>
 </g>
</svg>
