<?xml version="1.0" encoding="UTF-8" standalone="no"?>
<!-- Creator: CorelDRAW -->

<svg
   xml:space="preserve"
   width="500"
   height="500"
   version="1.1"
   style="clip-rule:evenodd;fill-rule:evenodd;image-rendering:optimizeQuality;shape-rendering:geometricPrecision;text-rendering:geometricPrecision"
   viewBox="0 0 500 500"
   id="svg23"
   xmlns:xlink="http://www.w3.org/1999/xlink"
   xmlns="http://www.w3.org/2000/svg"
   xmlns:svg="http://www.w3.org/2000/svg">
 <defs
   id="defs4"><linearGradient
   id="linearGradient853"><stop
     style="stop-color:#2f4050;stop-opacity:1;"
     offset="0"
     id="stop851" /></linearGradient>
  <style
   type="text/css"
   id="style2">
   <![CDATA[
    .str0 {stroke:#FEFEFE;stroke-width:0.95;stroke-miterlimit:2.61313}
    .fil1 {fill:#FEFEFE;fill-rule:nonzero}
    .fil2 {fill:#FEFEFE;fill-rule:nonzero}
    .fil0 {fill:#4B4B4D;fill-rule:nonzero}
   ]]>
  </style>
 
   
   
   
   
   
  
    
    
   <linearGradient
   xlink:href="#linearGradient853"
   id="linearGradient855"
   x1="232.86905"
   y1="363.49397"
   x2="492.12971"
   y2="363.49397"
   gradientUnits="userSpaceOnUse" /></defs>
 <g
   id="Layer_x0020_1">
  <metadata
   id="CorelCorpID_0Corel-Layer" />
  <g
   id="g917"><path
     class="fil0"
     d="M 423.59041,217.81719 H 299.91302 c -46.29857,0 -83.80496,37.51585 -83.80496,83.81443 v 123.86667 c 0,31.07077 16.90295,58.11928 42.02078,72.61835 C 244.49102,499.3659 230.40838,500 215.95663,500 101.30804,500 8.3228577,459.07706 8.3228577,408.58587 V 91.451988 C 8.3228577,40.922942 101.30804,-7.3619999e-7 215.95663,-7.3619999e-7 330.60523,-7.3619999e-7 423.59041,40.922942 423.59041,91.451988 Z M 215.95663,156.91545 c 80.92787,0 146.54275,-28.91295 146.54275,-64.554905 0,-35.641952 -65.61488,-64.507581 -146.54275,-64.507581 -80.92786,0 -146.533282,28.865629 -146.533282,64.507581 0,35.641955 65.605422,64.554905 146.533282,64.554905 z"
     id="path7"
     style="fill:#2f4050;fill-opacity:1;stroke-width:0.946414" /><path
     class="fil1 str0"
     d="m 8.3228577,175.90051 c 60.1351483,36.54105 137.5139623,57.91108 209.9714223,57.91108 72.16407,0 147.99076,-21.2186 205.29613,-57.85429 l 0.0473,9.92788 c -58.68713,37.51585 -131.70298,56.17914 -205.34345,56.17914 -73.86762,0 -148.45451,-18.77686 -209.9335657,-56.13182 z"
     id="path9" /><path
     class="fil1 str0"
     d="m 8.3228577,268.10963 c 60.1351483,36.54105 137.5139623,57.91108 209.9714223,57.91108 72.16407,0 147.99076,-21.22807 205.29613,-57.86376 l 0.0473,9.93735 c -58.68713,37.51585 -131.70298,56.17914 -205.34345,56.17914 -73.86762,0 -148.45451,-18.77686 -209.9335657,-56.13182 z"
     id="path11" /><path
     class="fil1 str0"
     d="m 8.3228577,356.7697 c 60.1351483,36.54105 137.5139623,57.91108 209.9714223,57.91108 72.16407,0 147.99076,-21.22807 205.29613,-57.86376 l 0.0473,9.93735 c -58.68713,37.51585 -131.70298,56.17914 -205.34345,56.17914 -73.86762,0 -148.45451,-18.77686 -209.9335657,-56.13182 z"
     id="path13" /><path
     class="fil0"
     d="m 307.40862,233.85891 h 110.17206 c 41.16901,0 74.54903,33.38002 74.54903,74.53957 V 418.58 c 0,41.16901 -33.38002,74.54903 -74.54903,74.54903 H 307.40862 c -41.15954,0 -74.53957,-33.38002 -74.53957,-74.54903 V 308.39848 c 0,-41.15955 33.38003,-74.53957 74.53957,-74.53957 z"
     id="path15"
     style="fill:url(#linearGradient855);fill-opacity:1;stroke-width:0.946414" /><path
     class="fil2"
     d="m 351.53991,413.03401 -10.1077,-103.59448 v -47.87908 h 42.14381 v 47.87908 l -9.96574,103.59448 z m -8.39469,52.39349 v -39.01119 h 39.00172 v 39.01119 z"
     id="path17"
     style="stroke-width:0.946414" /></g>
 </g>
</svg>
